<?xml version="1.0" encoding="iso-8859-1"?>
<!-- Generator: Adobe Illustrator 18.0.0, SVG Export Plug-In . SVG Version: 6.00 Build 0)  -->
<!DOCTYPE svg PUBLIC "-//W3C//DTD SVG 1.1//EN" "http://www.w3.org/Graphics/SVG/1.1/DTD/svg11.dtd">
<svg xmlns="http://www.w3.org/2000/svg" xmlns:xlink="http://www.w3.org/1999/xlink" version="1.1" id="Capa_1" x="0px" y="0px" viewBox="0 0 370.253 370.253" style="enable-background:new 0 0 370.253 370.253;" xml:space="preserve" width="512px" height="512px">
<path d="M351.256,174.585c-12.236-21.694-31.605-41.2-55.483-56.158V78.994c0-23.478-16.782-44.5-47.262-59.196  C222.033,7.031,187.204,0,150.454,0c-36.759,0-71.58,7.031-98.059,19.798C21.916,34.494,5.126,55.517,5.126,78.994V291.26  c0,6.827,1.432,13.44,4.188,19.756c3.439,8.33,8.855,15.632,15.673,21.317c7.274,6.737,16.45,12.837,27.407,18.122  c26.479,12.767,61.3,19.798,98.059,19.798c36.75,0,71.579-7.031,98.058-19.798c10.944-5.28,20.115-11.378,27.389-18.107  c6.825-5.689,12.246-12.999,15.687-21.337c1.679-3.836,2.855-7.787,3.532-11.827c29.027-5.381,50.994-20.423,62.253-42.863  C369.513,232.123,367.34,203.097,351.256,174.585z M39.587,78.994c0-9.243,10.387-19.768,27.77-28.152  c21.588-10.408,51.879-16.376,83.097-16.376c31.217,0,61.499,5.968,83.088,16.376c17.392,8.384,27.771,18.909,27.771,28.152  c0,9.239-10.379,19.763-27.771,28.147c-21.589,10.408-51.871,16.379-83.088,16.379c-31.218,0-61.509-5.971-83.097-16.379  C49.974,98.757,39.587,88.233,39.587,78.994z M327.121,241.141c-15.228,30.361-69.58,35.2-118.684,10.566  c-10.584-5.311-20.388-11.701-29.077-18.886c-3.483,2.652-7.816,4.242-12.54,4.242c-11.459,0-20.747-9.288-20.747-20.748  c0-11.46,9.288-20.752,20.747-20.752c11.46,0,20.756,9.292,20.756,20.752c0,1.156-0.123,2.282-0.304,3.387  c7.445,5.64,15.581,10.727,24.257,15.076c29.369,14.733,60.614,18.914,84.244,13.405v-87.786  C324.819,185.458,338.739,217.982,327.121,241.141z" fill="#FFFFFF"/>
<g>
</g>
<g>
</g>
<g>
</g>
<g>
</g>
<g>
</g>
<g>
</g>
<g>
</g>
<g>
</g>
<g>
</g>
<g>
</g>
<g>
</g>
<g>
</g>
<g>
</g>
<g>
</g>
<g>
</g>
</svg>
