<?xml version="1.0" encoding="UTF-8" standalone="no"?>
<svg
   xmlns:dc="http://purl.org/dc/elements/1.1/"
   xmlns:cc="http://creativecommons.org/ns#"
   xmlns:rdf="http://www.w3.org/1999/02/22-rdf-syntax-ns#"
   xmlns:svg="http://www.w3.org/2000/svg"
   xmlns="http://www.w3.org/2000/svg"
   xmlns:sodipodi="http://sodipodi.sourceforge.net/DTD/sodipodi-0.dtd"
   xmlns:inkscape="http://www.inkscape.org/namespaces/inkscape"
   version="1.1"
   viewBox="0 0 470 380.00001"
   enable-background="new 0 0 470 470"
   width="512"
   height="413.95746"
   id="svg3040"
   inkscape:version="0.48.4 r9939"
   sodipodi:docname="peers.svg">
  <metadata
     id="metadata3074">
    <rdf:RDF>
      <cc:Work
         rdf:about="">
        <dc:format>image/svg+xml</dc:format>
        <dc:type
           rdf:resource="http://purl.org/dc/dcmitype/StillImage" />
        <dc:title></dc:title>
      </cc:Work>
    </rdf:RDF>
  </metadata>
  <defs
     id="defs3072" />
  <sodipodi:namedview
     pagecolor="#ffffff"
     bordercolor="#666666"
     borderopacity="1"
     objecttolerance="10"
     gridtolerance="10"
     guidetolerance="10"
     inkscape:pageopacity="0"
     inkscape:pageshadow="2"
     inkscape:window-width="2560"
     inkscape:window-height="1605"
     id="namedview3070"
     showgrid="false"
     inkscape:zoom="1.8782524"
     inkscape:cx="168.31465"
     inkscape:cy="198.43649"
     inkscape:window-x="0"
     inkscape:window-y="73"
     inkscape:window-maximized="1"
     inkscape:current-layer="g3042"
     fit-margin-top="0"
     fit-margin-left="0"
     fit-margin-right="0"
     fit-margin-bottom="0" />
  <g
     id="g3042">
    <path
       d="m 16.105,219.443 h 50.842 l 18.252,36.506 c 1.27,2.54 3.867,4.146 6.708,4.146 2.841,0 5.438,-1.605 6.708,-4.146 l 18.253,-36.506 h 3.724 c 4.142,0 7.5,-3.357 7.5,-7.5 0,-4.143 -3.358,-7.5 -7.5,-7.5 h -8.359 c -2.841,0 -5.438,1.604 -6.708,4.146 L 91.907,235.824 78.29,208.589 c -1.27,-2.54 -3.867,-4.146 -6.708,-4.146 H 16.105 C 15.496,204.443 15,203.948 15,203.339 V 16.105 C 15,15.496 15.496,15 16.105,15 h 151.604 c 0.61,0 1.106,0.496 1.106,1.105 v 81.306 c 0,4.143 3.358,7.5 7.5,7.5 4.142,0 7.5,-3.357 7.5,-7.5 V 16.105 C 183.815,7.225 176.59,0 167.709,0 H 16.105 C 7.225,0 0,7.225 0,16.105 v 187.233 c 0,8.881 7.225,16.105 16.105,16.105 z"
       id="path3044"
       inkscape:connector-curvature="0"
       style="fill:#687ddb" />
    <path
       d="M 453.896,0 H 302.291 c -8.881,0 -16.106,7.225 -16.106,16.105 v 81.306 c 0,4.143 3.357,7.5 7.5,7.5 4.143,0 7.5,-3.357 7.5,-7.5 V 16.105 c 0,-0.609 0.496,-1.105 1.106,-1.105 h 151.604 c 0.609,0 1.104,0.496 1.104,1.105 v 187.233 c 0,0.609 -0.495,1.104 -1.104,1.104 h -55.478 c -2.841,0 -5.438,1.605 -6.708,4.146 l -13.617,27.235 -13.618,-27.235 c -1.271,-2.541 -3.867,-4.146 -6.708,-4.146 h -8.358 c -4.143,0 -7.5,3.357 -7.5,7.5 0,4.143 3.357,7.5 7.5,7.5 h 3.724 l 18.253,36.506 c 1.271,2.541 3.867,4.146 6.708,4.146 2.841,0 5.438,-1.605 6.708,-4.146 l 18.253,-36.506 h 50.842 c 8.88,0 16.104,-7.225 16.104,-16.104 V 16.105 C 470,7.225 462.775,0 453.896,0 z"
       id="path3050"
       inkscape:connector-curvature="0"
       style="fill:#687ddb" />
    <path
       d="m 143.092,136.01 v 187.234 c 0,8.88 7.225,16.104 16.105,16.104 h 50.842 l 18.252,36.506 c 1.271,2.54 3.868,4.146 6.708,4.146 2.84,0 5.438,-1.605 6.708,-4.146 l 18.253,-36.506 h 50.841 c 8.881,0 16.105,-7.225 16.105,-16.104 V 136.01 c 0,-8.88 -7.225,-16.104 -16.105,-16.104 H 159.197 c -8.88,-0.001 -16.105,7.224 -16.105,16.104 z m 168.815,0 v 187.234 c 0,0.609 -0.496,1.104 -1.105,1.104 h -55.476 c -2.841,0 -5.438,1.604 -6.708,4.146 L 235,355.729 221.383,328.494 c -1.27,-2.54 -3.867,-4.146 -6.708,-4.146 h -55.477 c -0.609,0 -1.105,-0.495 -1.105,-1.104 V 136.01 c 0,-0.609 0.496,-1.104 1.105,-1.104 h 151.604 c 0.609,-0.001 1.105,0.494 1.105,1.104 z"
       id="path3056"
       inkscape:connector-curvature="0"
       style="fill:#687ddb" />
    <g
       transform="matrix(0.36975848,0,0,0.36975848,26.540815,51.697555)"
       id="XMLID_817_">
      <polygon
         style="fill:#687ddb"
         id="XMLID_818_"
         points="200,8.787 200,99.997 291.213,99.997 " />
      <path
         style="fill:#687ddb"
         inkscape:connector-curvature="0"
         id="XMLID_819_"
         d="M 45,0 C 36.716,0 30,6.716 30,15 v 300 c 0,8.284 6.716,15 15,15 h 240 c 8.284,0 15,-6.716 15,-15 V 129.997 H 185 c -8.284,0 -15,-6.716 -15,-15 V 0 H 45 z m 173.395,227.297 8.226,10.2 c 2.151,2.667 3.324,5.99 3.324,9.417 V 255 c 0,8.284 -6.716,15 -15,15 H 105 c -8.284,0 -15,-6.716 -15,-15 v -8.087 c 0,-3.79 1.435,-7.44 4.017,-10.216 l 26.633,-28.634 c 5.24,-5.634 13.891,-6.389 20.029,-1.75 l 38.84,29.362 19.419,-11.785 c 6.425,-3.898 14.743,-2.44 19.457,3.407 z M 175.03,160.43 c 3.949,0 7.809,1.61 10.609,4.4 2.79,2.79 4.391,6.66 4.391,10.6 0,3.95 -1.601,7.82 -4.391,10.61 -2.8,2.79 -6.66,4.39 -10.609,4.39 -3.95,0 -7.82,-1.6 -10.61,-4.39 -2.79,-2.79 -4.39,-6.66 -4.39,-10.61 0,-3.94 1.6,-7.81 4.39,-10.6 2.79,-2.79 6.66,-4.4 10.61,-4.4 z" />
    </g>
    <g
       transform="matrix(0.36975848,0,0,0.36975848,193.68838,-36.274847)"
       id="g3306" />
    <g
       transform="matrix(0.36975848,0,0,0.36975848,193.68838,-36.274847)"
       id="g3308" />
    <g
       transform="matrix(0.36975848,0,0,0.36975848,193.68838,-36.274847)"
       id="g3310" />
    <g
       transform="matrix(0.36975848,0,0,0.36975848,193.68838,-36.274847)"
       id="g3312" />
    <g
       transform="matrix(0.36975848,0,0,0.36975848,193.68838,-36.274847)"
       id="g3314" />
    <g
       transform="matrix(0.36975848,0,0,0.36975848,193.68838,-36.274847)"
       id="g3316" />
    <g
       transform="matrix(0.36975848,0,0,0.36975848,193.68838,-36.274847)"
       id="g3318" />
    <g
       transform="matrix(0.36975848,0,0,0.36975848,193.68838,-36.274847)"
       id="g3320" />
    <g
       transform="matrix(0.36975848,0,0,0.36975848,193.68838,-36.274847)"
       id="g3322" />
    <g
       transform="matrix(0.36975848,0,0,0.36975848,193.68838,-36.274847)"
       id="g3324" />
    <g
       transform="matrix(0.36975848,0,0,0.36975848,193.68838,-36.274847)"
       id="g3326" />
    <g
       transform="matrix(0.36975848,0,0,0.36975848,193.68838,-36.274847)"
       id="g3328" />
    <g
       transform="matrix(0.36975848,0,0,0.36975848,193.68838,-36.274847)"
       id="g3330" />
    <g
       transform="matrix(0.36975848,0,0,0.36975848,193.68838,-36.274847)"
       id="g3332" />
    <g
       transform="matrix(0.36975848,0,0,0.36975848,193.68838,-36.274847)"
       id="g3334" />
    <g
       transform="matrix(0.36975781,0,0,0.36975781,325.44641,41.388269)"
       id="XMLID_829_">
      <polygon
         style="fill:#687ddb"
         id="XMLID_830_"
         points="200,8.787 200,99.997 291.213,99.997 " />
      <path
         style="fill:#687ddb"
         inkscape:connector-curvature="0"
         id="XMLID_831_"
         d="M 45,0 C 36.716,0 30,6.716 30,15 v 300 c 0,8.284 6.716,15 15,15 h 240 c 8.284,0 15,-6.716 15,-15 V 129.997 H 185 c -8.284,0 -15,-6.716 -15,-15 V 0 H 45 z m 142.979,165.855 c 4.649,-2.463 10.249,-2.31 14.757,0.404 4.508,2.713 7.264,7.59 7.264,12.851 v 71.778 c 0,5.261 -2.756,10.138 -7.264,12.851 -2.375,1.43 -5.055,2.149 -7.736,2.149 -2.409,0 -4.821,-0.58 -7.021,-1.745 L 161.273,250 H 135 c -8.284,0 -15,-6.716 -15,-15 v -40 c 0,-8.284 6.716,-15 15,-15 h 26.273 l 26.706,-14.145 z" />
    </g>
    <g
       transform="matrix(1.4242425,0,0,1.4242425,192.15488,-389.67672)"
       id="g3493" />
    <g
       transform="matrix(1.4242425,0,0,1.4242425,192.15488,-389.67672)"
       id="g3495" />
    <g
       transform="matrix(1.4242425,0,0,1.4242425,192.15488,-389.67672)"
       id="g3497" />
    <g
       transform="matrix(1.4242425,0,0,1.4242425,192.15488,-389.67672)"
       id="g3499" />
    <g
       transform="matrix(1.4242425,0,0,1.4242425,192.15488,-389.67672)"
       id="g3501" />
    <g
       transform="matrix(1.4242425,0,0,1.4242425,192.15488,-389.67672)"
       id="g3503" />
    <g
       transform="matrix(1.4242425,0,0,1.4242425,192.15488,-389.67672)"
       id="g3505" />
    <g
       transform="matrix(1.4242425,0,0,1.4242425,192.15488,-389.67672)"
       id="g3507" />
    <g
       transform="matrix(1.4242425,0,0,1.4242425,192.15488,-389.67672)"
       id="g3509" />
    <g
       transform="matrix(1.4242425,0,0,1.4242425,192.15488,-389.67672)"
       id="g3511" />
    <g
       transform="matrix(1.4242425,0,0,1.4242425,192.15488,-389.67672)"
       id="g3513" />
    <g
       transform="matrix(1.4242425,0,0,1.4242425,192.15488,-389.67672)"
       id="g3515" />
    <g
       transform="matrix(1.4242425,0,0,1.4242425,192.15488,-389.67672)"
       id="g3517" />
    <g
       transform="matrix(1.4242425,0,0,1.4242425,192.15488,-389.67672)"
       id="g3519" />
    <g
       transform="matrix(1.4242425,0,0,1.4242425,192.15488,-389.67672)"
       id="g3521" />
    <g
       transform="matrix(0.36975781,0,0,0.36975781,173.98996,171.39194)"
       id="XMLID_812_">
      <polygon
         style="fill:#687ddb"
         id="XMLID_813_"
         points="200,8.787 200,99.997 291.213,99.997 " />
      <path
         style="fill:#687ddb"
         inkscape:connector-curvature="0"
         id="XMLID_814_"
         d="M 45,0 C 36.716,0 30,6.716 30,15 v 300 c 0,8.284 6.716,15 15,15 h 240 c 8.284,0 15,-6.716 15,-15 V 129.997 H 185 c -8.284,0 -15,-6.716 -15,-15 V 0 H 45 z m 167.624,196.969 c 4.571,2.698 7.376,7.61 7.376,12.917 0,5.307 -2.805,10.22 -7.376,12.917 l -70,41.316 c -2.351,1.388 -4.987,2.083 -7.624,2.083 -2.565,0 -5.132,-0.657 -7.438,-1.974 -4.676,-2.67 -7.563,-7.642 -7.563,-13.026 V 168.57 c 0,-5.385 2.887,-10.356 7.563,-13.026 4.677,-2.67 10.426,-2.629 15.061,0.109 l 70.001,41.316 z" />
    </g>
    <g
       transform="matrix(1.4242425,0,0,1.4242425,73.880867,-292.90707)"
       id="g3680" />
    <g
       transform="matrix(1.4242425,0,0,1.4242425,73.880867,-292.90707)"
       id="g3682" />
    <g
       transform="matrix(1.4242425,0,0,1.4242425,73.880867,-292.90707)"
       id="g3684" />
    <g
       transform="matrix(1.4242425,0,0,1.4242425,73.880867,-292.90707)"
       id="g3686" />
    <g
       transform="matrix(1.4242425,0,0,1.4242425,73.880867,-292.90707)"
       id="g3688" />
    <g
       transform="matrix(1.4242425,0,0,1.4242425,73.880867,-292.90707)"
       id="g3690" />
    <g
       transform="matrix(1.4242425,0,0,1.4242425,73.880867,-292.90707)"
       id="g3692" />
    <g
       transform="matrix(1.4242425,0,0,1.4242425,73.880867,-292.90707)"
       id="g3694" />
    <g
       transform="matrix(1.4242425,0,0,1.4242425,73.880867,-292.90707)"
       id="g3696" />
    <g
       transform="matrix(1.4242425,0,0,1.4242425,73.880867,-292.90707)"
       id="g3698" />
    <g
       transform="matrix(1.4242425,0,0,1.4242425,73.880867,-292.90707)"
       id="g3700" />
    <g
       transform="matrix(1.4242425,0,0,1.4242425,73.880867,-292.90707)"
       id="g3702" />
    <g
       transform="matrix(1.4242425,0,0,1.4242425,73.880867,-292.90707)"
       id="g3704" />
    <g
       transform="matrix(1.4242425,0,0,1.4242425,73.880867,-292.90707)"
       id="g3706" />
    <g
       transform="matrix(1.4242425,0,0,1.4242425,73.880867,-292.90707)"
       id="g3708" />
  </g>
</svg>
