<?xml version="1.0" encoding="UTF-8" standalone="no"?>
<svg
   xmlns:dc="http://purl.org/dc/elements/1.1/"
   xmlns:cc="http://creativecommons.org/ns#"
   xmlns:rdf="http://www.w3.org/1999/02/22-rdf-syntax-ns#"
   xmlns:svg="http://www.w3.org/2000/svg"
   xmlns="http://www.w3.org/2000/svg"
   xmlns:sodipodi="http://sodipodi.sourceforge.net/DTD/sodipodi-0.dtd"
   xmlns:inkscape="http://www.inkscape.org/namespaces/inkscape"
   version="1.1"
   viewBox="0 0 470 380.00001"
   enable-background="new 0 0 470 470"
   width="512"
   height="413.95746"
   id="svg3040"
   inkscape:version="0.48.4 r9939"
   sodipodi:docname="viral-marketing.svg">
  <metadata
     id="metadata3074">
    <rdf:RDF>
      <cc:Work
         rdf:about="">
        <dc:format>image/svg+xml</dc:format>
        <dc:type
           rdf:resource="http://purl.org/dc/dcmitype/StillImage" />
        <dc:title></dc:title>
      </cc:Work>
    </rdf:RDF>
  </metadata>
  <defs
     id="defs3072" />
  <sodipodi:namedview
     pagecolor="#ffffff"
     bordercolor="#666666"
     borderopacity="1"
     objecttolerance="10"
     gridtolerance="10"
     guidetolerance="10"
     inkscape:pageopacity="0"
     inkscape:pageshadow="2"
     inkscape:window-width="2560"
     inkscape:window-height="1605"
     id="namedview3070"
     showgrid="false"
     fit-margin-top="0"
     fit-margin-left="0"
     fit-margin-right="0"
     fit-margin-bottom="0"
     inkscape:zoom="2.65625"
     inkscape:cx="256"
     inkscape:cy="157.95745"
     inkscape:window-x="0"
     inkscape:window-y="73"
     inkscape:window-maximized="1"
     inkscape:current-layer="g3042" />
  <g
     id="g3042">
    <path
       d="m 16.105,219.443 h 50.842 l 18.252,36.506 c 1.27,2.54 3.867,4.146 6.708,4.146 2.841,0 5.438,-1.605 6.708,-4.146 l 18.253,-36.506 h 3.724 c 4.142,0 7.5,-3.357 7.5,-7.5 0,-4.143 -3.358,-7.5 -7.5,-7.5 h -8.359 c -2.841,0 -5.438,1.604 -6.708,4.146 L 91.907,235.824 78.29,208.589 c -1.27,-2.54 -3.867,-4.146 -6.708,-4.146 H 16.105 C 15.496,204.443 15,203.948 15,203.339 V 16.105 C 15,15.496 15.496,15 16.105,15 h 151.604 c 0.61,0 1.106,0.496 1.106,1.105 v 81.306 c 0,4.143 3.358,7.5 7.5,7.5 4.142,0 7.5,-3.357 7.5,-7.5 V 16.105 C 183.815,7.225 176.59,0 167.709,0 H 16.105 C 7.225,0 0,7.225 0,16.105 v 187.233 c 0,8.881 7.225,16.105 16.105,16.105 z"
       id="path3044"
       inkscape:connector-curvature="0"
       style="fill:#687ddb" />
    <path
       d="M 91.908,30 C 71.22,30 54.39,46.83 54.39,67.518 c 0,20.688 16.831,37.519 37.518,37.519 20.687,0 37.518,-16.831 37.518,-37.519 C 129.426,46.83 112.595,30 91.908,30 z m 0,60.036 C 79.491,90.036 69.39,79.934 69.39,67.517 69.39,55.102 79.491,45 91.908,45 c 12.417,0 22.518,10.102 22.518,22.518 0,12.417 -10.102,22.518 -22.518,22.518 z"
       id="path3046"
       inkscape:connector-curvature="0"
       style="fill:#687ddb" />
    <path
       d="m 91.908,135.036 c 8.819,0 17.411,2.459 24.845,7.11 3.513,2.198 8.139,1.133 10.336,-2.379 2.197,-3.512 1.132,-8.14 -2.379,-10.336 -9.823,-6.146 -21.166,-9.396 -32.802,-9.396 C 57.771,120.036 30,147.808 30,181.943 c 0,4.143 3.358,7.5 7.5,7.5 h 83.092 c 4.142,0 7.5,-3.357 7.5,-7.5 0,-4.143 -3.358,-7.5 -7.5,-7.5 H 45.599 C 49.2,152.132 68.595,135.036 91.908,135.036 z"
       id="path3048"
       inkscape:connector-curvature="0"
       style="fill:#687ddb" />
    <path
       d="M 453.896,0 H 302.291 c -8.881,0 -16.106,7.225 -16.106,16.105 v 81.306 c 0,4.143 3.357,7.5 7.5,7.5 4.143,0 7.5,-3.357 7.5,-7.5 V 16.105 c 0,-0.609 0.496,-1.105 1.106,-1.105 h 151.604 c 0.609,0 1.104,0.496 1.104,1.105 v 187.233 c 0,0.609 -0.495,1.104 -1.104,1.104 h -55.478 c -2.841,0 -5.438,1.605 -6.708,4.146 l -13.617,27.235 -13.618,-27.235 c -1.271,-2.541 -3.867,-4.146 -6.708,-4.146 h -8.358 c -4.143,0 -7.5,3.357 -7.5,7.5 0,4.143 3.357,7.5 7.5,7.5 h 3.724 l 18.253,36.506 c 1.271,2.541 3.867,4.146 6.708,4.146 2.841,0 5.438,-1.605 6.708,-4.146 l 18.253,-36.506 h 50.842 c 8.88,0 16.104,-7.225 16.104,-16.104 V 16.105 C 470,7.225 462.775,0 453.896,0 z"
       id="path3050"
       inkscape:connector-curvature="0"
       style="fill:#687ddb" />
    <path
       d="m 378.093,30 c -20.688,0 -37.519,16.83 -37.519,37.518 0,20.688 16.831,37.519 37.519,37.519 20.688,0 37.518,-16.831 37.518,-37.519 C 415.611,46.83 398.78,30 378.093,30 z m 0,60.036 c -12.417,0 -22.519,-10.102 -22.519,-22.519 0,-12.416 10.102,-22.518 22.519,-22.518 12.416,0 22.518,10.102 22.518,22.518 -10e-4,12.418 -10.102,22.519 -22.518,22.519 z"
       id="path3052"
       inkscape:connector-curvature="0"
       style="fill:#687ddb" />
    <path
       d="m 341.908,181.943 c 0,4.143 3.357,7.5 7.5,7.5 H 432.5 c 4.143,0 7.5,-3.357 7.5,-7.5 0,-34.136 -27.771,-61.907 -61.907,-61.907 -11.637,0 -22.979,3.249 -32.802,9.396 -3.511,2.196 -4.576,6.824 -2.38,10.336 2.198,3.511 6.823,4.576 10.337,2.379 7.435,-4.651 16.025,-7.11 24.845,-7.11 23.313,0 42.707,17.096 46.309,39.407 h -74.993 c -4.143,-10e-4 -7.501,3.357 -7.501,7.499 z"
       id="path3054"
       inkscape:connector-curvature="0"
       style="fill:#687ddb" />
    <path
       d="m 143.092,136.01 v 187.234 c 0,8.88 7.225,16.104 16.105,16.104 h 50.842 l 18.252,36.506 c 1.271,2.54 3.868,4.146 6.708,4.146 2.84,0 5.438,-1.605 6.708,-4.146 l 18.253,-36.506 h 50.841 c 8.881,0 16.105,-7.225 16.105,-16.104 V 136.01 c 0,-8.88 -7.225,-16.104 -16.105,-16.104 H 159.197 c -8.88,-0.001 -16.105,7.224 -16.105,16.104 z m 168.815,0 v 187.234 c 0,0.609 -0.496,1.104 -1.105,1.104 h -55.476 c -2.841,0 -5.438,1.604 -6.708,4.146 L 235,355.729 221.383,328.494 c -1.27,-2.54 -3.867,-4.146 -6.708,-4.146 h -55.477 c -0.609,0 -1.105,-0.495 -1.105,-1.104 V 136.01 c 0,-0.609 0.496,-1.104 1.105,-1.104 h 151.604 c 0.609,-0.001 1.105,0.494 1.105,1.104 z"
       id="path3056"
       inkscape:connector-curvature="0"
       style="fill:#687ddb" />
    <path
       d="m 235,224.941 c 20.687,0 37.518,-16.831 37.518,-37.519 0,-20.688 -16.83,-37.518 -37.518,-37.518 -20.688,0 -37.518,16.83 -37.518,37.518 0,20.688 16.83,37.519 37.518,37.519 z m 0,-60.036 c 12.416,0 22.518,10.102 22.518,22.518 0,12.417 -10.102,22.519 -22.518,22.519 -12.417,0 -22.518,-10.102 -22.518,-22.519 0,-12.416 10.101,-22.518 22.518,-22.518 z"
       id="path3058"
       inkscape:connector-curvature="0"
       style="fill:#687ddb" />
    <path
       d="m 180.592,309.349 h 108.815 c 4.143,0 7.5,-3.357 7.5,-7.5 0,-34.136 -27.771,-61.907 -61.907,-61.907 -34.136,0 -61.908,27.771 -61.908,61.907 0,4.142 3.358,7.5 7.5,7.5 z M 235,254.941 c 23.312,0 42.707,17.096 46.309,39.407 h -92.617 c 3.6,-22.311 22.995,-39.407 46.308,-39.407 z"
       id="path3060"
       inkscape:connector-curvature="0"
       style="fill:#687ddb" />
  </g>
</svg>
